<?xml version="1.0" standalone="no"?>
<!DOCTYPE svg PUBLIC "-//W3C//DTD SVG 20010904//EN"
 "http://www.w3.org/TR/2001/REC-SVG-20010904/DTD/svg10.dtd">
<svg version="1.0" xmlns="http://www.w3.org/2000/svg"
 width="476.000000pt" height="524.000000pt" viewBox="0 0 476.000000 524.000000"
 preserveAspectRatio="xMidYMid meet">

<g transform="translate(0.000000,524.000000) scale(0.100000,-0.100000)"
fill="#000000" stroke="none">
<path d="M2555 5210 c-136 -43 -163 -54 -286 -121 -233 -127 -406 -248 -594
-417 -206 -184 -324 -352 -411 -582 -24 -66 -28 -89 -28 -190 -1 -112 0 -117
35 -190 51 -105 126 -185 208 -222 112 -51 151 -59 289 -65 72 -3 132 -9 132
-12 0 -4 -24 -33 -52 -63 -122 -129 -152 -170 -154 -208 -1 -20 -13 -59 -27
-86 -50 -100 -60 -154 -55 -318 5 -170 20 -225 81 -318 48 -71 141 -164 189
-189 83 -42 206 -80 322 -99 123 -20 283 -27 258 -11 -19 12 19 21 87 21 29 0
81 5 115 10 33 6 126 19 206 31 165 23 225 37 360 81 124 41 370 146 489 209
103 55 256 153 267 171 4 7 -7 2 -24 -11 -18 -12 -38 -21 -44 -19 -7 3 18 21
55 42 37 21 67 43 67 50 0 6 50 38 110 70 61 31 110 59 110 62 0 2 -76 -33
-168 -79 -188 -92 -238 -115 -333 -150 -37 -14 -81 -33 -99 -42 -17 -9 -34
-14 -37 -11 -4 3 43 29 103 58 117 55 326 168 334 179 3 4 57 35 120 69 151
81 127 72 -117 -45 -112 -53 -207 -94 -212 -91 -9 6 -74 -19 -236 -91 -175
-79 -484 -180 -605 -198 -119 -18 -428 -31 -483 -21 -73 14 -35 21 90 18 71
-2 139 1 153 7 18 7 4 8 -55 4 -121 -8 -370 36 -495 89 -122 51 -151 74 -210
164 -56 85 -70 139 -70 259 0 151 28 232 138 395 65 98 68 99 247 131 61 11
134 31 164 44 29 14 62 25 73 25 11 0 31 9 45 20 13 10 50 29 80 40 31 11 67
30 81 40 30 24 44 26 36 5 -4 -8 -3 -15 0 -15 4 0 62 21 129 46 124 47 261
112 308 145 14 10 86 52 160 94 130 73 204 133 196 158 -6 20 -50 19 -98 -1
-24 -10 -76 -27 -116 -37 -40 -10 -70 -22 -68 -26 4 -5 -103 -59 -118 -59 -3
0 -34 -13 -69 -29 -35 -16 -101 -39 -148 -51 -47 -13 -89 -26 -95 -31 -5 -4
-38 -13 -73 -20 -47 -10 -72 -10 -103 -2 -23 6 -55 7 -75 3 -19 -4 -34 -5 -34
-1 0 3 73 51 163 105 89 55 189 123 222 150 33 28 72 58 85 67 14 9 22 20 18
24 -4 4 -42 -13 -85 -37 -85 -49 -143 -79 -109 -56 34 23 107 88 99 88 -7 0
-110 -55 -382 -202 -84 -45 -231 -135 -278 -170 -44 -33 -143 -53 -143 -29 0
8 -62 11 -212 12 -214 1 -265 6 -261 27 4 15 -22 27 -84 41 -68 14 -136 46
-175 82 -30 29 -30 30 -24 102 5 49 21 109 53 191 41 107 55 130 143 240 138
172 300 314 544 476 119 79 320 183 416 215 51 18 66 27 68 45 2 12 0 26 -5
30 -4 5 -48 -5 -98 -20z m240 -1186 c-25 -20 -75 -46 -75 -40 0 5 82 56 90 56
3 -1 -4 -8 -15 -16z m-1125 -1328 c0 -18 63 -204 79 -234 24 -45 -6 -20 -36
31 -46 75 -80 217 -53 217 6 0 10 -6 10 -14z m143 -351 c21 -25 34 -45 29 -45
-12 0 -82 69 -82 80 0 20 17 9 53 -35z"/>
<path d="M2208 3783 c6 -2 18 -2 25 0 6 3 1 5 -13 5 -14 0 -19 -2 -12 -5z"/>
<path d="M2290 1624 c-136 -36 -210 -141 -180 -253 23 -86 93 -135 235 -166
136 -28 165 -45 165 -95 0 -23 -7 -33 -31 -45 -76 -40 -199 -24 -316 40 l-63
35 0 -84 c0 -82 1 -84 28 -94 82 -31 115 -37 227 -37 142 0 206 18 268 74 49
44 67 85 67 153 0 110 -59 162 -230 204 -130 31 -158 42 -171 66 -23 43 20 83
104 94 52 7 154 -17 215 -51 25 -14 48 -25 53 -25 5 0 8 34 7 76 -2 88 0 85
-110 108 -94 20 -195 20 -268 0z"/>
<path d="M470 1280 l0 -350 250 0 250 0 0 65 0 65 -165 0 -165 0 0 90 0 90
150 0 150 0 0 65 0 65 -150 0 -151 0 3 63 3 62 163 3 162 2 0 65 0 65 -250 0
-250 0 0 -350z"/>
<path d="M1220 1280 l0 -350 80 0 80 0 0 235 c0 129 3 235 8 235 4 0 72 -106
152 -235 l145 -234 88 -1 87 0 0 350 0 350 -80 0 -80 0 -2 -202 -3 -203 -80
123 c-44 67 -103 157 -130 200 l-50 77 -108 3 -107 3 0 -351z"/>
<path d="M2920 1280 l0 -350 250 0 250 0 0 65 0 65 -162 2 -163 3 0 85 0 85
153 3 152 3 0 64 0 64 -152 3 -153 3 0 60 0 60 163 3 162 2 0 65 0 65 -250 0
-250 0 0 -350z"/>
<path d="M3856 1621 c-3 -5 -37 -94 -75 -197 -38 -104 -95 -256 -125 -338 -31
-82 -56 -151 -56 -153 0 -2 40 -3 88 -3 l88 0 23 70 22 70 134 0 133 0 22 -66
c12 -36 28 -68 34 -70 7 -3 49 -4 93 -2 l81 3 -104 280 c-57 154 -116 310
-130 348 l-26 67 -98 0 c-54 0 -101 -4 -104 -9z m147 -303 c21 -59 37 -110 37
-113 0 -3 -38 -5 -85 -5 -47 0 -85 1 -85 3 0 3 66 200 75 226 9 23 20 2 58
-111z"/>
</g>
</svg>
