<?xml version="1.0" standalone="no"?>
<!DOCTYPE svg PUBLIC "-//W3C//DTD SVG 20010904//EN"
 "http://www.w3.org/TR/2001/REC-SVG-20010904/DTD/svg10.dtd">
<svg version="1.0" xmlns="http://www.w3.org/2000/svg"
 width="1000.000000pt" height="1000.000000pt" viewBox="0 0 1000.000000 1000.000000"
 preserveAspectRatio="xMidYMid meet">

<g transform="translate(0.000000,1000.000000) scale(0.100000,-0.100000)"
fill="#000000" stroke="none">
<path d="M5191 9553 c-6 -21 -40 -159 -77 -307 -66 -266 -67 -269 -51 -310 27
-72 2247 -4620 2257 -4626 19 -12 640 -204 643 -199 11 11 359 553 363 564 4
9 -401 351 -469 396 -6 4 7 51 31 115 49 133 82 240 111 359 l22 91 317 78
c174 43 320 82 324 85 4 3 12 112 18 241 5 129 12 267 15 307 l5 71 -48 10
c-26 6 -169 36 -318 67 l-272 58 -6 61 c-8 77 -48 254 -83 369 -23 75 -24 90
-12 101 8 7 121 108 252 225 130 117 237 216 237 220 0 23 -196 554 -207 558
-9 4 -661 -132 -734 -153 -10 -3 -37 23 -79 77 -35 44 -103 118 -152 164 l-89
83 122 319 c67 175 122 323 123 329 2 16 -515 417 -524 407 -4 -4 -110 -125
-235 -268 -125 -143 -233 -266 -239 -273 -10 -10 -32 -5 -112 27 -90 36 -214
75 -320 101 l-41 10 -37 267 c-20 148 -42 301 -48 341 l-10 72 -334 0 -333 0
-10 -37z"/>
<path d="M4319 9145 c-29 -16 -139 -193 -170 -275 -10 -27 -19 -64 -19 -81 0
-21 151 -334 454 -945 484 -973 492 -986 586 -1034 51 -26 127 -112 158 -178
23 -50 27 -70 27 -157 0 -89 -3 -106 -28 -157 -37 -75 -98 -134 -177 -172 -59
-28 -74 -31 -160 -31 -82 0 -103 4 -152 27 -76 35 -148 104 -184 175 -28 56
-29 63 -30 203 0 91 -5 160 -14 184 -22 67 -648 1317 -672 1344 -13 13 -38 31
-55 38 -28 12 -38 12 -65 1 -18 -8 -41 -23 -50 -33 -20 -23 -2141 -4224 -2136
-4230 3 -2 127 -1 276 4 l272 7 629 1267 c346 697 635 1284 641 1304 9 25 10
55 4 93 -4 31 -8 94 -8 141 -1 72 3 94 27 145 35 76 105 148 182 188 55 30 67
32 155 32 82 0 103 -4 152 -27 76 -35 151 -107 185 -176 23 -47 28 -73 31
-153 4 -88 2 -102 -23 -157 -33 -75 -114 -154 -203 -202 -35 -18 -71 -45 -81
-59 -29 -40 -119 -255 -141 -334 -26 -95 -25 -111 9 -149 l29 -33 1104 0
c1039 0 1106 1 1150 18 25 10 54 30 63 44 42 64 65 13 -774 1713 -431 872
-795 1598 -809 1614 -50 53 -128 71 -183 41z"/>
<path d="M3424 5236 c-33 -15 -74 -60 -74 -82 0 -7 -148 -311 -330 -674 -181
-363 -330 -662 -330 -665 0 -3 120 -5 268 -5 l267 0 220 442 c121 243 233 456
249 475 l28 33 648 0 647 0 34 -23 c28 -19 64 -80 215 -377 100 -195 203 -394
228 -442 l47 -88 259 0 c143 0 260 1 260 3 0 2 -27 66 -60 143 -66 150 -93
187 -191 254 -71 49 -115 100 -148 170 -22 47 -26 69 -26 150 0 88 3 101 33
162 39 79 92 129 181 172 59 28 76 31 156 31 111 0 160 -20 244 -100 106 -101
145 -245 107 -392 -23 -89 -13 -122 116 -385 l111 -227 156 6 c86 3 213 8 283
12 l126 6 -338 665 c-305 602 -341 668 -376 692 -86 60 -25 58 -1569 58 -1157
-1 -1416 -3 -1441 -14z"/>
<path d="M7568 3210 c-126 -20 -249 -109 -281 -205 -20 -56 -22 -147 -6 -196
17 -49 61 -106 109 -141 22 -17 129 -70 237 -119 248 -112 273 -134 273 -242
0 -73 -28 -113 -105 -152 -53 -26 -70 -30 -145 -30 -121 1 -228 40 -314 116
l-34 29 -46 -52 -46 -52 25 -26 c35 -37 125 -89 203 -117 129 -48 330 -40 440
16 63 33 120 89 149 149 24 49 28 69 28 142 0 76 -3 91 -30 139 -16 29 -45 66
-65 83 -38 32 -172 98 -338 168 -120 51 -177 95 -193 150 -23 75 8 142 84 183
36 19 57 22 147 21 113 0 167 -16 237 -70 17 -13 36 -24 41 -24 9 0 82 83 82
93 0 14 -143 99 -195 115 -74 24 -181 33 -257 22z"/>
<path d="M1936 2608 c-108 -321 -196 -587 -196 -591 0 -4 35 -7 77 -5 l78 3
54 178 55 177 215 -2 216 -3 54 -177 55 -178 82 0 83 0 -199 588 -198 587 -89
3 -90 3 -197 -583z m304 400 c7 -29 44 -153 81 -276 38 -122 69 -227 69 -232
0 -6 -67 -10 -170 -10 -110 0 -170 4 -170 10 0 6 27 97 59 203 32 105 69 229
82 275 12 45 25 82 29 82 3 0 12 -24 20 -52z"/>
<path d="M3660 2601 l0 -591 75 0 75 0 0 250 0 251 107 -3 107 -3 141 -247
140 -248 88 0 89 0 -20 33 c-11 17 -79 133 -151 256 l-130 225 55 22 c72 29
120 67 155 123 41 64 52 112 47 216 -6 145 -62 227 -187 277 -52 21 -75 23
-323 26 l-268 3 0 -590z m469 458 c68 -14 112 -45 139 -99 41 -83 25 -190 -40
-257 -51 -52 -111 -67 -273 -68 l-140 0 -3 218 -2 217 134 0 c74 0 158 -5 185
-11z"/>
<path d="M5500 2600 l0 -590 375 0 375 0 0 65 0 65 -300 0 -300 0 0 215 0 215
245 0 245 0 0 65 0 65 -245 0 -245 0 0 185 0 185 290 0 290 0 0 60 0 60 -365
0 -365 0 0 -590z"/>
</g>
</svg>
