<?xml version="1.0" standalone="no"?>
<!DOCTYPE svg PUBLIC "-//W3C//DTD SVG 20010904//EN"
 "http://www.w3.org/TR/2001/REC-SVG-20010904/DTD/svg10.dtd">
<svg version="1.0" xmlns="http://www.w3.org/2000/svg"
 width="1000.000000pt" height="1000.000000pt" viewBox="0 0 1000.000000 1000.000000"
 preserveAspectRatio="xMidYMid meet">

<g transform="translate(0.000000,1000.000000) scale(0.100000,-0.100000)"
fill="#000000" stroke="none">
<path d="M0 5000 l0 -5000 5000 0 5000 0 0 5000 0 5000 -5000 0 -5000 0 0
-5000z m6890 4287 c0 -2 -10 -12 -22 -23 l-23 -19 19 23 c18 21 26 27 26 19z
m-973 -29 c-3 -8 -6 -5 -6 6 -1 11 2 17 5 13 3 -3 4 -12 1 -19z m903 -51 c0
-2 -10 -12 -22 -23 l-23 -19 19 23 c18 21 26 27 26 19z m-883 -89 c-3 -8 -6
-5 -6 6 -1 11 2 17 5 13 3 -3 4 -12 1 -19z m813 9 c0 -2 -10 -12 -22 -23 l-23
-19 19 23 c18 21 26 27 26 19z m-803 -79 c-3 -8 -6 -5 -6 6 -1 11 2 17 5 13 3
-3 4 -12 1 -19z m723 -12 c0 -2 -8 -10 -17 -17 -16 -13 -17 -12 -4 4 13 16 21
21 21 13z m-713 -58 c-3 -8 -6 -5 -6 6 -1 11 2 17 5 13 3 -3 4 -12 1 -19z
m-910 -10 c-3 -8 -6 -5 -6 6 -1 11 2 17 5 13 3 -3 4 -12 1 -19z m1553 -12 c0
-2 -8 -10 -17 -17 -16 -13 -17 -12 -4 4 13 16 21 21 21 13z m-70 -79 c0 -2
-10 -12 -22 -23 l-23 -19 19 23 c18 21 26 27 26 19z m-70 -80 c0 -2 -10 -12
-22 -23 l-23 -19 19 23 c18 21 26 27 26 19z m761 -564 c13 -16 12 -17 -3 -4
-10 7 -18 15 -18 17 0 8 8 3 21 -13z m99 -88 c19 -19 32 -35 29 -35 -3 0 -20
16 -39 35 -19 19 -32 35 -29 35 3 0 20 -16 39 -35z m935 -55 c3 -6 -1 -7 -9
-4 -18 7 -21 14 -7 14 6 0 13 -4 16 -10z m-4314 -37 c13 -16 12 -17 -3 -4 -10
7 -18 15 -18 17 0 8 8 3 21 -13z m3470 -10 c13 -16 12 -17 -3 -4 -10 7 -18 15
-18 17 0 8 8 3 21 -13z m1049 -516 c0 -2 -10 -12 -22 -23 l-23 -19 19 23 c18
21 26 27 26 19z m-90 -80 c0 -2 -12 -14 -27 -28 l-28 -24 24 28 c23 25 31 32
31 24z m-100 -90 c0 -2 -10 -12 -22 -23 l-23 -19 19 23 c18 21 26 27 26 19z
m-100 -90 c0 -2 -10 -12 -22 -23 l-23 -19 19 23 c18 21 26 27 26 19z m-100
-90 c0 -2 -10 -12 -22 -23 l-23 -19 19 23 c18 21 26 27 26 19z m-90 -81 c0 -2
-8 -10 -17 -17 -16 -13 -17 -12 -4 4 13 16 21 21 21 13z m-4213 -92 c-3 -3
-12 -4 -19 -1 -8 3 -5 6 6 6 11 1 17 -2 13 -5z m1339 -146 l29 -33 -32 29
c-31 28 -38 36 -30 36 2 0 16 -15 33 -32z m2941 -170 c-3 -8 -6 -5 -6 6 -1 11
2 17 5 13 3 -3 4 -12 1 -19z m10 -60 c-3 -8 -6 -5 -6 6 -1 11 2 17 5 13 3 -3
4 -12 1 -19z m-3430 -60 c-3 -7 -5 -2 -5 12 0 14 2 19 5 13 2 -7 2 -19 0 -25z
m3440 -10 c-3 -8 -6 -5 -6 6 -1 11 2 17 5 13 3 -3 4 -12 1 -19z m630 -235 c-3
-10 -5 -2 -5 17 0 19 2 27 5 18 2 -10 2 -26 0 -35z m-10 -235 c-2 -13 -4 -5
-4 17 -1 22 1 32 4 23 2 -10 2 -28 0 -40z m-10 -230 c-2 -13 -4 -5 -4 17 -1
22 1 32 4 23 2 -10 2 -28 0 -40z m-2570 -30 c-3 -7 -5 -2 -5 12 0 14 2 19 5
13 2 -7 2 -19 0 -25z m-2366 -85 c13 -16 12 -17 -3 -4 -10 7 -18 15 -18 17 0
8 8 3 21 -13z m2212 -30 c-7 -2 -19 -2 -25 0 -7 3 -2 5 12 5 14 0 19 -2 13 -5z
m1958 -680 c13 -16 12 -17 -3 -4 -10 7 -18 15 -18 17 0 8 8 3 21 -13z m160
-130 c13 -16 12 -17 -3 -4 -10 7 -18 15 -18 17 0 8 8 3 21 -13z m-2301 -66 c0
-2 -17 -19 -37 -38 l-38 -34 34 38 c33 34 41 42 41 34z m2461 -64 c13 -16 12
-17 -3 -4 -10 7 -18 15 -18 17 0 8 8 3 21 -13z m-1884 -395 c-3 -8 -6 -5 -6 6
-1 11 2 17 5 13 3 -3 4 -12 1 -19z m-626 -65 c13 -16 12 -17 -3 -4 -10 7 -18
15 -18 17 0 8 8 3 21 -13z m50 -50 c13 -16 12 -17 -3 -4 -10 7 -18 15 -18 17
0 8 8 3 21 -13z m130 -100 c13 -16 12 -17 -3 -4 -10 7 -18 15 -18 17 0 8 8 3
21 -13z m-3983 -340 c-21 -2 -55 -2 -75 0 -21 2 -4 4 37 4 41 0 58 -2 38 -4z
m5105 0 c-13 -2 -33 -2 -45 0 -13 2 -3 4 22 4 25 0 35 -2 23 -4z m-290 -10
c-13 -2 -35 -2 -50 0 -16 2 -5 4 22 4 28 0 40 -2 28 -4z m884 -599 c-3 -3 -12
-4 -19 -1 -8 3 -5 6 6 6 11 1 17 -2 13 -5z m100 0 c-3 -3 -12 -4 -19 -1 -8 3
-5 6 6 6 11 1 17 -2 13 -5z m-5449 -21 c-27 -2 -69 -2 -95 0 -27 2 -5 3 47 3
52 0 74 -1 48 -3z m1714 0 c-62 -2 -161 -2 -220 0 -59 1 -8 3 113 3 121 0 169
-2 107 -3z m1886 0 l-368 -3 -2 -593 -3 -592 -3 585 c-1 322 0 591 3 598 3 9
85 11 372 10 l368 -3 -367 -2z m220 -130 c-82 -2 -214 -2 -295 0 -82 1 -15 3
147 3 162 0 229 -2 148 -3z m1857 -91 c-3 -3 -11 0 -18 7 -9 10 -8 11 6 5 10
-3 15 -9 12 -12z m-678 -84 c-3 -7 -5 -2 -5 12 0 14 2 19 5 13 2 -7 2 -19 0
-25z m-2820 -50 c-2 -13 -4 -3 -4 22 0 25 2 35 4 23 2 -13 2 -33 0 -45z m-444
-205 c-35 -2 -91 -2 -125 0 -35 2 -7 3 62 3 69 0 97 -1 63 -3z m3624 -509 c-3
-3 -12 -4 -19 -1 -8 3 -5 6 6 6 11 1 17 -2 13 -5z m70 0 c-3 -3 -12 -4 -19 -1
-8 3 -5 6 6 6 11 1 17 -2 13 -5z m-2843 -570 c9 -3 14 -10 11 -14 -3 -5 0 -12
6 -16 7 -4 9 -3 5 4 -12 19 12 23 49 8 19 -8 35 -18 35 -22 0 -4 -3 -5 -6 -1
-3 3 -18 -5 -32 -18 -14 -13 -30 -21 -36 -18 -6 4 -19 8 -31 10 -45 6 -56 10
-68 23 -8 9 -8 11 0 6 6 -3 15 -1 19 5 4 7 3 10 -2 6 -5 -3 -20 1 -34 10 -14
8 -17 12 -7 9 9 -3 17 -1 17 4 0 11 49 13 74 4z m-1599 -29 c-2 -43 -4 -43
-177 -44 -146 -1 -135 9 -128 -120 l5 -86 127 -5 c69 -3 124 -2 121 3 -2 4 1
7 6 7 6 0 11 -16 11 -35 l0 -35 -129 0 c-72 0 -132 3 -134 8 -3 4 54 6 126 4
72 -2 129 -1 126 2 -2 3 -62 6 -132 7 l-128 1 -1 -121 c0 -67 -5 -124 -9 -127
-5 -3 -9 0 -9 5 0 6 -5 11 -12 11 -7 0 -5 -7 5 -17 14 -16 31 -17 151 -13 133
5 136 5 147 -17 7 -13 17 -23 22 -23 6 0 2 9 -8 20 -10 11 -15 23 -12 26 4 4
9 -1 13 -10 3 -9 11 -16 16 -16 6 0 7 8 3 18 -5 13 -3 14 5 6 9 -9 9 -17 1
-32 -6 -10 -7 -23 -3 -27 4 -3 0 -5 -8 -3 -8 2 -20 9 -25 16 -8 10 -54 14
-180 15 l-170 2 -2 303 -2 302 192 0 193 0 -1 -25z m540 15 c-3 -5 -1 -10 5
-10 6 0 9 -4 6 -9 -4 -5 -1 -11 6 -13 7 -3 5 -7 -6 -11 -10 -4 -15 -3 -11 3 3
6 2 10 -3 10 -12 0 -23 -25 -28 -59 -3 -22 -2 -22 11 -5 10 14 10 21 2 26 -7
4 -7 8 -2 8 19 0 38 -17 26 -24 -7 -5 -6 -15 5 -32 15 -22 43 -36 29 -14 -3 6
-1 10 5 10 7 0 10 -6 7 -13 -3 -8 1 -14 8 -14 7 0 11 7 8 16 -4 14 -3 14 5 1
6 -8 8 -18 6 -22 -3 -4 -1 -8 5 -8 9 0 21 -26 20 -44 0 -5 4 -12 9 -15 15 -9
52 -88 45 -95 -4 -3 -1 -6 6 -6 7 0 9 -4 6 -10 -3 -5 -2 -10 3 -10 6 0 13 -7
16 -16 4 -10 2 -13 -7 -9 -6 4 -3 -1 7 -9 17 -14 17 -16 4 -16 -19 0 -31 16
-33 42 -2 21 -8 29 -27 32 -7 1 -19 6 -27 10 -10 6 -12 5 -7 -2 4 -7 3 -12 -1
-12 -5 0 -21 24 -35 54 l-27 53 24 11 c21 10 23 9 18 -6 -5 -13 -3 -14 7 -5 9
8 9 16 1 30 -7 12 -10 14 -11 4 0 -8 -3 -11 -7 -8 -3 4 -13 1 -21 -6 -9 -7
-17 -8 -19 -2 -2 6 -12 28 -22 50 -16 33 -20 36 -20 17 -1 -13 -5 -21 -9 -18
-4 2 -8 -8 -7 -24 0 -15 4 -26 9 -23 5 3 7 -8 4 -26 -3 -18 -1 -34 4 -37 4 -3
8 -88 8 -190 l0 -185 -37 4 -38 4 -2 317 -3 316 46 0 c27 0 43 -4 39 -10z
m332 -307 l-2 -317 -42 -1 c-23 0 -39 3 -37 7 3 4 1 8 -4 8 -6 0 -13 8 -16 17
-4 10 -4 14 0 10 4 -4 14 -1 23 6 14 11 14 10 3 -5 -12 -15 -11 -18 13 -24 52
-13 54 3 55 313 0 155 -3 284 -7 286 -5 3 -7 -121 -5 -276 1 -154 0 -287 -3
-294 -8 -23 -57 15 -50 38 4 11 2 19 -5 19 -6 0 -9 -4 -6 -9 5 -8 -15 -21 -33
-21 -16 0 -28 45 -20 70 8 23 8 23 -5 7 -11 -15 -15 -15 -19 -3 -3 8 1 17 9
20 25 9 34 7 34 -8 0 -8 4 -17 9 -20 5 -4 7 3 4 15 -3 11 -12 23 -20 26 -12 5
-12 7 -1 14 8 5 9 9 2 9 -6 0 -17 -7 -24 -15 -7 -8 -16 -15 -21 -15 -10 0 -73
119 -64 121 38 10 59 -6 44 -33 -6 -11 -8 -22 -5 -26 3 -3 6 0 6 7 0 7 5 9 10
6 7 -4 6 -13 -1 -27 -9 -16 -8 -19 2 -13 9 6 10 3 5 -10 -5 -15 -4 -16 9 -5
13 11 13 15 3 21 -9 6 -4 9 15 9 24 0 29 -5 26 -26 0 -4 4 -10 11 -14 6 -4 12
-13 13 -21 2 -8 7 -20 11 -28 6 -10 5 -12 -2 -7 -7 4 -12 2 -12 -5 0 -9 -3 -9
-14 0 -12 10 -14 9 -11 -6 2 -10 4 -21 4 -25 1 -5 6 -8 11 -8 6 0 9 6 8 13 -2
6 6 12 17 12 12 0 20 -7 20 -17 0 -9 3 -19 6 -22 3 -4 6 12 5 33 0 22 -4 37
-8 35 -5 -3 -8 4 -8 16 0 12 4 19 9 15 10 -6 7 27 -4 45 -3 6 -1 10 5 10 7 0
8 5 3 13 -11 17 -10 31 2 39 6 5 6 8 -2 8 -10 0 -13 39 -13 160 0 141 2 161
17 167 15 6 15 7 -3 14 -14 6 -9 8 18 8 l38 1 -3 -317z m628 297 c12 0 25 -21
25 -41 0 -5 -8 -9 -17 -9 -26 0 -68 -24 -68 -38 0 -7 -3 -12 -7 -12 -5 0 -12
0 -18 0 -5 0 -8 19 -7 41 2 36 7 44 37 59 19 10 37 14 38 9 2 -5 10 -9 17 -9z
m1114 4 c-10 -12 -10 -20 -1 -35 7 -10 9 -19 5 -18 -5 1 -76 1 -158 0 l-151
-1 4 -97 c2 -54 6 -100 9 -103 3 -3 50 -6 106 -6 64 -1 103 -6 105 -13 5 -15
-15 -14 -22 2 -3 6 -3 -3 0 -20 l6 -33 -87 0 c-71 0 -90 3 -103 18 -10 10 -13
13 -9 6 10 -15 -5 -25 -21 -15 -12 7 -7 41 7 41 10 0 0 184 -11 198 -8 9 -6
16 8 26 10 8 23 12 29 8 5 -3 4 1 -3 10 -13 16 -48 17 -61 2 -3 -4 2 -4 11 -1
12 4 15 2 11 -8 -3 -8 -8 -13 -12 -10 -4 2 -8 -2 -8 -10 0 -8 4 -15 9 -15 5 0
6 -5 2 -12 -4 -7 -3 -8 5 -4 9 6 12 -15 10 -88 -1 -53 -5 -96 -10 -96 -5 0 -9
5 -9 12 0 6 -3 8 -6 5 -4 -4 -1 -13 6 -22 7 -9 8 -15 2 -15 -6 0 -9 -8 -8 -17
2 -10 11 -18 22 -18 17 0 19 -9 22 -83 2 -58 -1 -89 -10 -100 -8 -10 -8 -13
-1 -9 7 5 9 1 6 -11 -2 -10 3 -25 13 -33 10 -8 15 -9 12 -4 -4 7 45 10 140 9
140 -2 146 -3 154 -24 4 -12 6 -25 3 -30 -3 -4 -92 -7 -197 -7 l-193 2 -2 318
-2 317 196 0 c177 0 194 -1 182 -16z m713 7 c-8 -5 -27 -7 -43 -6 -16 1 -26
-1 -23 -6 3 -5 1 -9 -5 -9 -13 0 -22 15 -14 24 3 3 27 6 52 6 29 0 41 -3 33
-9z m-10 -32 c8 -11 9 -11 4 4 -3 9 -1 17 5 17 9 0 20 -22 33 -70 7 -24 6 -24
-8 -6 -9 10 -13 24 -9 30 3 6 2 8 -2 3 -5 -4 -19 0 -32 8 -13 9 -23 11 -23 5
0 -5 5 -10 12 -10 8 0 9 -3 2 -10 -6 -6 -18 -8 -27 -4 -18 7 -23 24 -7 24 6 0
9 3 9 8 -4 24 26 26 43 1z m-79 -16 c-10 -8 -13 -12 -8 -10 6 3 17 0 25 -6 17
-13 21 -38 6 -36 -5 0 -13 -5 -17 -13 -7 -10 -9 -10 -9 3 0 8 5 20 11 26 9 9
7 11 -7 9 -12 -2 -18 -10 -16 -21 2 -10 -2 -22 -10 -26 -8 -6 -1 -7 20 -5 21
2 31 0 29 -8 -3 -6 -10 -10 -16 -8 -6 1 -11 -2 -11 -8 0 -5 -5 -10 -11 -10 -5
0 -7 5 -3 12 4 6 3 8 -3 5 -13 -8 -28 24 -16 32 4 3 8 11 8 16 1 37 18 73 31
68 12 -4 12 -8 -3 -20z m-1506 -40 c-20 -22 -44 -22 -31 -1 5 7 1 9 -9 5 -10
-3 -17 -2 -17 4 0 6 -4 7 -10 4 -6 -3 -7 1 -4 9 3 9 10 17 15 17 5 1 13 2 18
3 5 0 13 4 17 8 4 5 15 0 25 -10 16 -16 16 -18 -4 -39z m-1157 27 c0 -5 -4
-10 -10 -10 -5 0 -10 5 -10 10 0 6 5 10 10 10 6 0 10 -4 10 -10z m830 2 c0 -5
-3 -12 -7 -16 -16 -16 -10 -57 11 -68 20 -10 20 -10 6 7 -13 16 -13 18 0 13
23 -7 24 -45 2 -57 -16 -8 -21 -7 -26 5 -3 9 -3 21 0 27 5 9 4 9 -5 1 -10 -9
-10 -17 -2 -33 10 -18 15 -19 33 -10 20 11 37 0 38 -23 0 -13 -20 -9 -21 5 0
9 -2 9 -5 0 -3 -7 -13 -10 -22 -7 -16 5 -16 5 0 -5 9 -6 15 -20 13 -30 -3 -15
1 -18 18 -14 18 4 19 3 7 -6 -8 -6 -10 -11 -5 -12 31 -2 49 -9 56 -21 9 -15 1
-27 -9 -13 -4 6 -13 11 -20 13 -29 6 -62 35 -62 56 0 17 -2 18 -10 6 -7 -11
-11 -8 -21 15 -17 44 -19 116 -3 148 14 25 34 37 34 19z m1925 -21 c3 -11 15
-23 26 -26 11 -4 18 -9 15 -12 -3 -4 0 -13 7 -22 7 -8 -2 -6 -19 6 -23 16 -31
18 -31 8 0 -8 3 -12 6 -11 3 2 19 -6 34 -18 24 -20 26 -24 13 -35 -8 -7 -12
-20 -9 -28 4 -11 2 -14 -6 -9 -6 4 -10 4 -9 -1 2 -4 -1 -9 -7 -10 -5 -2 -10 1
-10 6 0 5 -3 13 -7 17 -11 11 -10 24 3 24 5 0 7 -4 4 -10 -10 -16 5 -12 23 7
15 15 15 16 1 11 -16 -6 -43 5 -45 19 0 4 -4 15 -7 23 -10 24 -16 68 -10 74
11 11 22 6 28 -13z m-2742 -32 c-10 -4 -24 -2 -31 4 -11 9 -10 13 4 24 16 12
21 11 32 -4 11 -15 10 -19 -5 -24z m2650 -58 c9 6 17 8 17 5 0 -3 -9 -10 -19
-16 -15 -7 -23 -6 -35 6 -9 8 -16 20 -16 26 0 6 8 2 18 -10 13 -15 22 -18 35
-11z m-8 -25 c14 6 17 4 12 -8 -3 -9 -11 -35 -18 -58 -10 -32 -15 -38 -21 -26
-5 9 -14 16 -20 16 -7 0 -7 -4 1 -14 17 -20 -8 -38 -31 -22 -10 7 -15 16 -11
19 3 4 13 1 22 -5 11 -9 10 -6 -2 9 -12 14 -15 23 -7 28 5 3 7 12 3 18 -4 7 4
4 19 -5 28 -18 45 -13 27 9 -9 10 -8 13 4 13 9 0 19 4 22 10 7 11 -23 2 -42
-12 -15 -12 -23 3 -16 31 5 20 7 20 23 6 10 -9 24 -13 35 -9z m170 -16 c-3 -5
-1 -10 4 -10 6 0 11 -4 11 -10 0 -5 -6 -9 -12 -7 -8 1 -12 -6 -10 -17 3 -18 2
-19 -15 -5 -16 12 -17 12 -6 -2 7 -9 12 -18 10 -20 -1 -3 6 4 16 15 10 10 19
17 21 15 2 -2 13 -33 25 -68 15 -46 18 -68 10 -75 -7 -8 -8 -5 -3 9 7 18 6 19
-10 6 -13 -11 -14 -16 -4 -22 12 -8 4 -13 -14 -10 -5 0 -8 -4 -8 -10 0 -5 -5
-7 -10 -4 -8 5 -8 11 0 20 8 10 7 14 -2 18 -9 4 -7 6 4 6 23 1 28 13 14 32
-10 15 -13 15 -26 1 -13 -14 -12 -15 3 -9 9 3 19 2 22 -2 2 -5 -6 -12 -20 -15
-14 -4 -25 -11 -25 -17 0 -6 -5 -7 -12 -3 -7 4 -8 3 -4 -5 6 -9 11 -9 24 1 13
11 15 11 10 -3 -4 -9 -1 -22 5 -28 8 -8 -21 -11 -111 -11 l-122 0 -11 -45
c-11 -43 -18 -52 -32 -38 -4 3 1 11 10 18 14 10 13 12 -7 10 -13 -1 -24 -9
-26 -18 -1 -10 2 -15 6 -12 5 3 14 -3 20 -14 11 -21 -2 -37 -20 -26 -5 3 -18
1 -27 -5 -16 -10 -16 -10 2 -6 11 3 27 1 35 -4 11 -7 11 -10 2 -10 -7 0 -12
-8 -10 -17 2 -14 -6 -18 -42 -19 -25 -1 -39 0 -32 3 6 3 10 9 6 14 -3 5 -2 15
3 22 4 6 9 21 10 31 2 11 8 25 13 31 5 7 6 16 2 20 -4 5 -1 5 7 0 11 -6 13 -3
9 13 -4 12 -2 25 3 28 5 3 7 9 4 14 -3 5 -1 11 5 15 6 4 8 11 5 16 -4 5 -1 9
5 9 6 0 10 8 8 18 -3 19 28 25 49 9 7 -5 19 -4 30 1 10 6 54 10 98 10 l80 -1
-2 31 c-3 26 0 30 17 27 11 -2 18 0 15 6 -4 5 1 9 10 9 9 0 13 5 10 10 -4 7
-11 7 -18 2 -14 -11 -48 -12 -41 -1 2 4 0 10 -6 14 -6 4 1 20 18 41 26 32 40
45 27 24z m-1885 -42 c0 -6 -5 -6 -14 1 -11 9 -15 8 -20 -6 -4 -10 -4 -14 0
-10 4 4 16 0 26 -10 10 -9 21 -13 25 -10 3 4 1 7 -5 7 -7 0 -12 5 -12 11 0 5
4 8 9 4 5 -3 12 -1 15 4 4 5 33 -2 67 -17 47 -20 59 -30 56 -44 -3 -10 -2 -16
2 -13 5 2 16 -2 26 -9 13 -9 15 -15 7 -20 -7 -4 -12 -3 -12 3 0 12 -24 8 -43
-7 -12 -10 -18 -10 -30 2 -8 8 -18 12 -21 8 -4 -3 -4 1 -1 10 4 9 2 19 -4 23
-6 3 -14 0 -17 -9 -8 -22 -53 1 -60 31 -5 20 -21 28 -47 24 -5 -1 -6 3 -2 9 3
6 -2 14 -12 18 -21 8 -30 34 -9 26 8 -3 17 -1 21 5 7 12 55 -15 55 -31z m1070
-43 c0 -24 -5 -35 -15 -35 -9 0 -12 6 -9 18 5 15 3 14 -10 -2 -9 -11 -18 -17
-21 -14 -10 10 7 37 28 44 22 7 22 7 2 15 -19 7 -19 8 3 8 19 1 22 -4 22 -34z
m575 -25 c11 -17 -19 -50 -35 -39 -12 7 -12 9 -1 9 7 0 11 6 8 14 -9 23 15 37
28 16z m45 -5 c0 -8 -5 -15 -11 -15 -6 0 -9 -7 -6 -15 7 -18 -11 -31 -25 -17
-7 7 -4 18 7 36 19 29 35 34 35 11z m-1462 -59 c-4 -5 -15 -3 -24 5 -15 12
-17 12 -9 0 5 -9 4 -12 -2 -8 -6 4 -10 -4 -10 -18 0 -19 3 -23 12 -15 6 5 16
6 20 2 5 -4 5 -1 1 6 -4 6 -2 12 3 12 13 0 14 -11 5 -35 -5 -11 -9 -13 -14 -5
-4 6 -7 -4 -7 -22 0 -18 2 -27 5 -20 3 10 8 8 19 -5 8 -10 11 -12 7 -4 -3 7 0
17 7 22 12 8 12 10 0 18 -10 6 -11 13 -2 27 12 22 13 22 16 -34 2 -31 -1 -45
-12 -49 -12 -5 -12 -7 -1 -14 10 -7 11 -9 0 -9 -7 0 -11 -3 -8 -8 2 -4 -2 -15
-9 -25 -17 -24 -68 -7 -58 19 4 12 3 15 -5 10 -7 -4 -12 -14 -12 -21 0 -9 -6
-12 -15 -9 -12 5 -10 10 8 24 15 13 27 15 39 9 14 -7 16 -5 12 11 -2 11 -6 29
-8 40 -3 11 -1 18 5 15 5 -4 9 -2 9 4 0 5 -6 14 -12 18 -49 31 -74 98 -28 73
20 -11 50 13 30 25 -5 3 -10 11 -10 17 0 6 13 -2 28 -18 15 -16 24 -33 20 -38z
m1722 -41 c-7 -8 -17 -12 -23 -8 -6 4 -3 11 8 19 23 17 32 10 15 -11z m-24
-16 c4 -8 9 -8 17 0 6 6 15 11 21 11 5 0 6 -3 3 -7 -4 -3 -2 -12 4 -19 7 -8 7
-19 2 -29 -9 -15 -11 -15 -24 1 -12 16 -12 17 4 11 11 -4 16 -3 12 4 -4 6 -13
8 -20 5 -7 -2 -18 1 -25 7 -10 9 -11 9 -6 0 4 -8 1 -13 -8 -13 -9 0 -16 6 -16
13 0 26 23 36 36 16z m52 -57 c7 7 12 8 12 4 0 -10 -31 -35 -43 -36 -5 0 -5 6
-1 13 5 8 3 8 -7 -1 -12 -11 -11 -15 4 -27 10 -7 30 -11 43 -9 13 2 23 1 22
-3 0 -5 4 -21 10 -36 16 -39 15 -44 -7 -21 -10 10 -16 25 -13 32 3 9 -3 11
-22 8 -14 -3 -26 0 -26 5 0 5 -7 9 -15 9 -8 0 -15 7 -15 15 0 25 -1 30 -13 43
-19 24 14 34 38 12 16 -15 24 -17 33 -8z m-2047 -47 c19 -7 20 -7 2 -21 -12
-8 -13 -13 -5 -14 7 0 10 -5 7 -11 -9 -14 -28 -6 -31 14 -1 10 5 17 14 18 11
0 8 4 -8 11 -14 6 -31 10 -37 9 -7 -1 -10 4 -7 13 4 11 0 13 -16 9 l-21 -6 21
-14 c11 -8 24 -12 29 -8 5 3 12 1 16 -5 3 -5 1 -10 -4 -10 -19 0 -12 -25 12
-39 12 -8 33 -15 47 -16 14 -1 30 -4 36 -7 5 -4 16 -3 24 3 12 7 9 9 -10 10
-14 1 -32 0 -40 -1 -12 -2 -11 3 4 19 11 12 14 21 8 21 -7 0 -12 -5 -12 -11 0
-5 -5 -7 -11 -3 -8 4 -7 9 2 15 23 15 39 10 39 -11 0 -22 3 -23 37 -14 13 4
20 10 17 15 -3 5 0 9 5 9 12 0 14 -11 5 -34 -3 -9 -11 -13 -18 -9 -6 3 -8 2
-3 -2 4 -5 18 -10 30 -11 12 -2 16 0 10 2 -18 8 -16 25 1 18 8 -3 23 -1 33 6
16 10 15 11 -8 6 -18 -4 -26 -1 -26 9 0 8 4 12 9 9 4 -3 8 0 8 5 0 6 5 11 11
11 5 0 7 -5 3 -12 -5 -8 -2 -9 9 -5 10 4 17 2 17 -5 0 -7 4 -7 14 1 14 12 46
5 46 -10 0 -15 -43 -34 -48 -20 -5 15 -22 14 -18 -1 1 -7 1 -10 -1 -5 -8 12
-23 8 -23 -8 0 -11 -15 -14 -79 -11 -68 3 -89 9 -142 38 -35 19 -65 40 -67 48
-3 9 2 8 19 -3 34 -25 46 -21 15 4 -26 20 -26 22 -10 40 16 18 17 18 45 -6 16
-13 38 -27 50 -30z m2061 16 c8 12 9 12 6 0 -4 -15 -38 -25 -38 -12 0 14 15
22 19 10 2 -8 6 -7 13 2z m-2717 -31 c3 -6 -4 -10 -17 -10 -18 0 -20 2 -8 10
19 12 18 12 25 0z m745 -20 c0 -5 -4 -10 -10 -10 -5 0 -10 5 -10 10 0 6 5 10
10 10 6 0 10 -4 10 -10z m1953 -5 c9 2 15 -1 12 -5 -3 -5 -1 -11 5 -15 20 -13
9 -25 -20 -23 -20 1 -29 7 -26 15 3 7 1 15 -4 18 -6 4 -10 11 -10 17 0 7 4 7
13 1 6 -6 20 -9 30 -8z m-2653 -11 c0 -2 -7 -4 -15 -4 -8 0 -15 4 -15 10 0 5
7 7 15 4 8 -4 15 -8 15 -10z m-880 -21 c0 -4 -76 -9 -168 -11 -131 -2 -169 0
-169 10 0 10 38 13 169 11 92 -1 168 -6 168 -10z"/>
<path d="M4804 1538 c13 -7 14 -13 6 -23 -11 -13 -8 -13 29 -6 2 1 -3 9 -10
19 -11 15 -11 15 1 4 8 -7 15 -18 15 -25 0 -7 7 -12 15 -12 8 0 22 -5 30 -10
13 -8 13 -7 1 8 -7 9 -17 14 -22 11 -5 -2 -11 6 -14 18 -5 18 -13 24 -37 25
-25 1 -28 -1 -14 -9z"/>
<path d="M4891 1523 c-1 -18 13 -23 29 -11 12 8 12 9 -2 5 -9 -3 -19 -1 -22 6
-3 9 -5 9 -5 0z"/>
<path d="M3203 1525 c0 -17 25 -37 32 -25 3 6 1 10 -5 10 -7 0 -10 6 -7 13 3
8 0 14 -7 14 -7 0 -13 -5 -13 -12z"/>
<path d="M2885 1484 c0 -18 4 -36 9 -41 5 -5 6 -3 2 5 -4 6 -4 17 -1 23 15 23
35 -45 35 -116 0 -63 -3 -78 -24 -102 -18 -22 -22 -33 -14 -44 8 -11 9 -11 4
4 -8 25 8 21 23 -6 7 -14 11 -52 9 -97 -3 -66 -5 -75 -22 -75 -15 0 -20 -8
-21 -32 -1 -18 2 -30 7 -27 5 3 6 9 3 14 -3 5 4 11 15 15 11 4 18 11 15 16 -4
5 -1 9 5 9 8 0 11 32 9 106 -2 82 0 107 11 114 12 8 12 10 0 15 -12 4 -15 25
-13 107 1 64 -2 97 -7 88 -7 -11 -9 -10 -8 7 1 12 7 19 15 16 15 -6 18 23 3
32 -5 3 -7 0 -5 -7 4 -9 -2 -14 -16 -15 -15 -1 -18 1 -10 10 7 9 5 13 -7 13
-13 0 -17 -9 -17 -32z m45 -239 c-7 -9 -15 -13 -17 -11 -7 7 7 26 19 26 6 0 6
-6 -2 -15z"/>
<path d="M3023 1493 c37 -2 96 -2 130 0 34 2 4 3 -68 3 -71 0 -99 -1 -62 -3z"/>
<path d="M2889 1263 c-13 -16 -12 -17 4 -4 16 13 21 21 13 21 -2 0 -10 -8 -17
-17z"/>
<path d="M3727 1533 c-4 -3 -7 -133 -7 -288 0 -269 1 -282 20 -303 26 -27 39
-28 37 -2 -1 15 -7 20 -22 18 -20 -3 -20 1 -20 290 0 160 0 292 -1 292 0 0 -4
-3 -7 -7z"/>
<path d="M3750 1536 c0 -2 7 -7 16 -10 8 -3 12 -2 9 4 -6 10 -25 14 -25 6z"/>
<path d="M3815 1387 c3 -7 15 -13 26 -14 24 -2 23 0 -8 16 -18 9 -22 9 -18 -2z"/>
<path d="M3850 1325 c0 -21 18 -37 31 -29 11 6 11 4 0 -10 -11 -13 -12 -19 -2
-29 10 -9 11 -8 5 7 -5 14 -3 17 7 14 8 -3 13 -11 11 -17 -1 -7 2 -9 8 -6 6 4
18 -1 26 -11 14 -18 14 -18 4 4 -6 12 -15 22 -21 22 -6 0 -7 5 -3 12 4 6 3 8
-3 5 -6 -4 -13 3 -16 14 -4 13 -10 18 -17 14 -7 -4 -16 -1 -21 6 -5 8 -9 10
-9 4z"/>
<path d="M3906 1198 c3 -4 9 -8 15 -8 5 0 9 4 9 8 0 5 -7 9 -15 9 -8 0 -12 -4
-9 -9z"/>
<path d="M4727 1517 c-3 -8 -1 -20 5 -28 8 -11 9 -10 4 4 -6 19 10 24 17 5 4
-8 6 -9 6 -2 1 6 -5 17 -13 23 -10 9 -15 8 -19 -2z"/>
<path d="M4681 1511 c-9 -6 -10 -11 -2 -15 6 -4 11 -1 11 6 0 10 3 9 10 -2 6
-9 5 -17 -3 -22 -6 -4 -9 -10 -6 -13 4 -3 11 1 17 8 16 18 -7 50 -27 38z"/>
<path d="M5507 1523 c-10 -9 -9 -573 1 -573 4 0 7 131 7 290 0 160 0 290 -1
290 0 0 -4 -3 -7 -7z"/>
<path d="M5663 1493 c37 -2 96 -2 130 0 34 2 4 3 -68 3 -71 0 -99 -1 -62 -3z"/>
<path d="M5638 1223 c23 -2 61 -2 85 0 23 2 4 4 -43 4 -47 0 -66 -2 -42 -4z"/>
<path d="M5553 1120 c0 -47 2 -66 4 -42 2 23 2 61 0 85 -2 23 -4 4 -4 -43z"/>
<path d="M5528 1033 c-10 -20 -1 -68 12 -69 12 -1 12 0 1 4 -12 3 -12 5 0 13
10 6 11 11 3 17 -6 4 -10 15 -8 25 2 17 -2 23 -8 10z"/>
<path d="M5846 953 c3 -10 -35 -13 -166 -13 -93 0 -171 -3 -173 -7 -3 -5 75
-7 173 -5 148 2 179 5 184 18 3 8 2 13 -3 9 -5 -3 -11 -2 -14 2 -2 5 -2 2 -1
-4z"/>
<path d="M4973 1490 c2 -8 0 -23 -5 -32 -5 -10 -6 -18 -4 -18 13 0 24 37 15
51 -9 12 -10 12 -6 -1z"/>
<path d="M4620 1419 c0 -5 5 -7 10 -4 6 3 10 8 10 11 0 2 -4 4 -10 4 -5 0 -10
-5 -10 -11z"/>
<path d="M4650 1380 c0 -5 7 -10 16 -10 8 0 12 5 9 10 -3 6 -10 10 -16 10 -5
0 -9 -4 -9 -10z"/>
<path d="M6595 1380 c-3 -5 1 -10 10 -10 9 0 13 5 10 10 -3 6 -8 10 -10 10 -2
0 -7 -4 -10 -10z"/>
<path d="M6680 1210 c6 -11 12 -20 14 -20 2 0 2 9 -1 20 -3 11 -9 20 -15 20
-5 0 -4 -9 2 -20z"/>
<path d="M6384 1141 c20 -22 26 -25 26 -13 0 4 -10 13 -22 21 -23 14 -23 14
-4 -8z"/>
<path d="M6505 1149 c-33 -5 -65 -9 -72 -10 -13 -3 -5 -29 9 -29 5 0 6 5 3 10
-3 6 -1 10 4 10 6 0 11 -5 11 -11 0 -5 5 -7 11 -3 8 4 7 9 -2 16 -17 11 86 6
116 -6 16 -6 17 -6 5 3 -13 9 -13 11 0 11 13 0 13 1 0 10 -8 5 -17 9 -20 8 -3
0 -32 -5 -65 -9z"/>
<path d="M6365 1114 c-4 -10 -10 -28 -12 -38 -3 -19 -2 -18 14 1 10 11 27 23
38 26 19 4 18 5 -2 6 -12 0 -23 6 -25 13 -3 7 -8 4 -13 -8z"/>
<path d="M6329 1018 c-7 -25 -5 -36 6 -31 8 2 11 11 8 19 -5 12 -12 18 -14 12z"/>
<path d="M6345 950 c-4 -6 -11 -7 -17 -4 -6 4 -8 2 -4 -4 3 -5 0 -13 -6 -15
-8 -3 -8 -6 -2 -6 6 -1 19 8 29 19 10 11 15 20 12 20 -3 0 -9 -5 -12 -10z"/>
<path d="M4715 1300 c-3 -5 -1 -10 4 -10 6 0 11 5 11 10 0 6 -2 10 -4 10 -3 0
-8 -4 -11 -10z"/>
<path d="M4804 1261 c0 -10 6 -18 13 -18 7 0 13 4 13 7 0 4 -6 12 -13 18 -10
8 -13 6 -13 -7z"/>
<path d="M4826 1235 c-14 -11 -23 -12 -33 -4 -8 7 -13 8 -13 1 0 -15 31 -24
45 -12 6 5 15 7 18 3 4 -3 7 0 7 8 0 12 2 12 9 0 5 -8 7 -19 5 -26 -3 -6 3
-18 13 -26 16 -13 17 -12 4 4 -8 9 -11 21 -7 24 4 4 11 1 16 -7 7 -11 9 -10 8
7 -2 14 -7 19 -17 15 -8 -3 -12 -1 -8 5 4 6 0 14 -9 17 -19 7 -15 8 -38 -9z"/>
<path d="M6420 1180 c0 -5 5 -10 11 -10 5 0 7 5 4 10 -3 6 -8 10 -11 10 -2 0
-4 -4 -4 -10z"/>
<path d="M4925 1150 c21 -24 26 -25 19 -6 -3 8 -13 17 -22 21 -13 5 -13 2 3
-15z"/>
<path d="M4962 991 c-11 -7 -11 -9 1 -14 16 -6 27 0 27 15 0 10 -11 10 -28 -1z"/>
<path d="M6686 1038 c3 -5 10 -6 15 -3 13 9 11 12 -6 12 -8 0 -12 -4 -9 -9z"/>
<path d="M4923 945 c0 -7 6 -11 14 -8 7 3 13 6 13 8 0 2 -6 5 -13 8 -8 3 -14
-1 -14 -8z"/>
<path d="M6733 937 c0 -8 6 -14 14 -14 9 0 10 4 2 14 -6 7 -12 13 -14 13 -1 0
-2 -6 -2 -13z"/>
</g>
</svg>
