<?xml version="1.0" standalone="no"?>
<!DOCTYPE svg PUBLIC "-//W3C//DTD SVG 20010904//EN"
 "http://www.w3.org/TR/2001/REC-SVG-20010904/DTD/svg10.dtd">
<svg version="1.0" xmlns="http://www.w3.org/2000/svg"
 width="2016.000000pt" height="928.000000pt" viewBox="0 0 2016.000000 928.000000"
 preserveAspectRatio="xMidYMid meet">

<g transform="translate(0.000000,928.000000) scale(0.100000,-0.100000)"
fill="#000000" stroke="none">
<path d="M2350 4940 c-211 -22 -358 -137 -375 -293 -4 -34 -5 -208 -3 -387 3
-287 6 -330 22 -368 35 -81 153 -161 291 -197 48 -12 128 -15 426 -15 359 0
366 0 385 21 28 31 26 111 -4 141 -22 23 -25 23 -380 29 -389 6 -415 9 -474
66 l-28 27 0 356 0 357 24 22 c52 49 95 54 484 60 l364 6 19 24 c34 41 18 129
-27 150 -27 12 -607 14 -724 1z"/>
<path d="M10262 4934 c-21 -14 -22 -22 -22 -140 l0 -124 -242 0 c-373 -1 -479
-22 -575 -115 -76 -74 -83 -106 -83 -389 0 -128 5 -248 10 -268 25 -88 109
-157 240 -194 73 -21 464 -31 570 -15 142 22 254 97 279 187 7 25 11 215 11
540 0 579 9 534 -101 534 -42 0 -72 -5 -87 -16z m-24 -692 c3 -304 1 -314 -76
-350 -56 -27 -60 -27 -272 -27 -203 0 -218 1 -261 23 -25 12 -51 34 -57 48 -8
16 -12 98 -12 238 0 201 1 215 21 240 50 63 116 74 434 72 l220 -1 3 -243z"/>
<path d="M12810 4890 c-145 -6 -197 -21 -252 -72 -65 -62 -63 -43 -66 -589 -3
-491 -3 -496 18 -522 20 -25 27 -27 96 -27 118 0 114 -10 114 285 l0 245 125
0 c146 0 171 8 186 60 14 45 -2 105 -31 120 -10 6 -77 10 -149 10 l-131 0 0
128 c0 112 2 131 18 145 30 27 113 37 313 37 176 0 190 1 209 20 38 38 22 137
-27 159 -25 12 -184 12 -423 1z"/>
<path d="M6474 4690 c-179 -23 -288 -101 -314 -224 -7 -34 -10 -214 -8 -530
l3 -478 24 -19 c33 -27 129 -27 164 1 26 20 26 25 29 143 l3 122 305 5 c283 6
310 8 370 29 95 33 152 78 186 148 29 58 29 59 32 284 3 148 0 247 -8 283 -23
110 -107 181 -260 219 -87 21 -408 32 -526 17z m511 -206 c58 -30 64 -56 64
-279 0 -232 -5 -250 -74 -285 -49 -25 -55 -25 -327 -28 l-278 -3 0 264 c0 255
1 265 21 291 22 27 47 41 104 57 17 4 125 7 240 6 191 -2 214 -4 250 -23z"/>
<path d="M7840 4693 c-184 -24 -318 -95 -373 -197 -21 -39 -22 -53 -22 -296
l0 -255 30 -54 c45 -82 116 -133 230 -167 51 -14 115 -18 414 -21 194 -3 363
-2 376 1 47 12 58 113 16 155 -17 17 -45 19 -332 23 -341 5 -376 10 -446 63
-37 29 -63 78 -63 120 l0 25 423 0 c349 0 427 2 443 14 17 13 19 30 22 177 4
182 -4 228 -48 281 -33 39 -128 93 -204 115 -51 15 -387 27 -466 16z m358
-198 c83 -16 137 -45 146 -78 3 -12 6 -48 6 -79 l0 -58 -345 0 -345 0 0 69 c0
99 29 132 140 158 66 15 288 8 398 -12z"/>
<path d="M3622 4670 c-188 -26 -319 -100 -368 -205 -23 -48 -24 -59 -24 -296
0 -243 0 -245 26 -297 43 -86 140 -145 296 -177 96 -21 564 -21 659 -1 131 28
232 97 273 186 19 42 21 63 21 285 0 276 -6 311 -68 381 -46 52 -110 88 -199
110 -74 18 -514 28 -616 14z m580 -202 c79 -36 78 -30 78 -286 0 -224 0 -229
-22 -249 -65 -59 -140 -73 -394 -73 -241 0 -325 14 -380 62 l-34 30 0 217 c0
237 2 246 60 276 76 39 127 45 395 42 215 -2 266 -5 297 -19z"/>
<path d="M4782 4673 c-52 -11 -53 -21 -50 -414 l3 -364 28 -47 c72 -123 227
-170 562 -172 269 -1 438 34 539 111 92 70 91 65 94 479 3 433 9 410 -109 407
-115 -3 -109 20 -109 -385 l0 -340 -28 -28 c-49 -49 -92 -55 -367 -55 -216 0
-257 2 -302 18 -96 34 -93 20 -93 408 0 326 -1 340 -20 359 -11 11 -28 20 -37
20 -10 0 -34 2 -53 4 -19 2 -45 2 -58 -1z"/>
<path d="M10972 4670 c-182 -26 -307 -93 -356 -192 -26 -52 -26 -54 -26 -297
0 -237 1 -248 24 -296 26 -57 99 -129 154 -152 104 -44 125 -46 505 -50 424
-5 407 -8 407 79 0 39 -5 54 -25 73 l-24 25 -268 0 c-147 0 -299 5 -337 10
-122 18 -195 74 -211 163 l-7 37 429 0 c424 0 430 0 449 21 17 19 19 38 19
178 0 86 -3 172 -8 192 -16 79 -118 159 -248 195 -64 18 -380 27 -477 14z
m223 -180 c152 -11 227 -28 268 -61 25 -19 27 -26 27 -95 l0 -74 -340 0 -340
0 0 71 c0 39 5 79 10 90 20 37 116 72 215 78 11 0 83 -4 160 -9z"/>
<path d="M13606 4670 c-170 -15 -281 -59 -344 -135 -53 -65 -57 -95 -57 -487
0 -196 4 -360 8 -365 11 -11 193 -11 204 0 4 5 10 172 13 372 6 415 2 397 96
445 46 24 57 25 221 25 113 0 176 4 183 11 6 6 10 29 8 50 -3 34 -8 42 -44 61
-50 28 -145 35 -288 23z"/>
<path d="M14090 4669 c-34 -14 -40 -26 -40 -82 0 -38 5 -53 24 -72 l25 -25
238 7 c267 6 306 1 347 -48 46 -55 44 -56 -161 -62 -199 -5 -263 -17 -352 -61
-122 -62 -153 -116 -159 -269 -5 -128 7 -180 53 -235 36 -41 117 -88 205 -118
45 -16 85 -19 215 -19 197 0 275 20 354 91 77 69 83 94 89 344 5 246 -4 334
-43 391 -59 90 -161 132 -357 148 -202 17 -411 21 -438 10z m618 -593 c-3
-137 -14 -165 -74 -196 -43 -22 -253 -20 -314 4 -80 30 -90 47 -90 146 0 79 2
89 25 110 49 46 115 59 293 60 l164 0 -4 -124z"/>
<path d="M15591 4670 c-235 -30 -371 -104 -405 -221 -13 -43 -16 -113 -16
-381 0 -326 3 -360 34 -380 6 -4 43 -8 82 -8 115 0 108 -23 114 393 l5 351 33
22 c54 37 145 47 392 41 229 -4 272 -11 321 -48 l24 -18 5 -349 c6 -415 -1
-392 115 -392 112 0 105 -27 105 401 0 333 -2 367 -19 404 -38 81 -132 141
-268 171 -83 18 -418 27 -522 14z"/>
<path d="M16980 4670 c-177 -21 -294 -90 -331 -196 -20 -56 -20 -542 0 -598
19 -55 83 -120 142 -146 100 -42 167 -50 467 -50 269 0 283 1 302 20 27 27 27
99 1 131 -19 24 -21 24 -293 30 -296 7 -341 14 -389 65 -24 25 -24 30 -27 248
-4 322 -22 308 400 316 319 6 313 4 325 73 8 51 -12 93 -49 106 -35 12 -445
13 -548 1z"/>
<path d="M18181 4670 c-172 -24 -305 -95 -353 -189 l-28 -53 0 -247 c0 -238 1
-248 24 -296 41 -86 121 -147 238 -182 43 -13 123 -17 421 -20 424 -5 407 -8
407 79 0 39 -5 54 -25 73 l-24 25 -263 0 c-145 0 -296 5 -336 10 -127 17 -200
71 -216 163 l-7 37 428 0 c235 0 434 4 441 8 7 5 17 24 22 43 14 46 13 266 -1
330 -20 91 -112 168 -245 205 -70 19 -382 28 -483 14z m224 -180 c150 -10 226
-28 269 -61 24 -19 26 -26 26 -95 l0 -74 -340 0 -340 0 0 73 c0 60 4 77 20 95
30 32 77 54 135 62 72 11 76 11 230 0z"/>
<path d="M13989 3120 c-474 -42 -736 -277 -789 -710 -28 -234 1 -451 87 -630
38 -79 59 -109 127 -176 125 -125 277 -192 514 -226 61 -8 251 -12 628 -13
589 0 580 -1 610 57 18 34 19 173 1 208 -22 44 -70 60 -185 60 l-103 0 43 50
c92 107 148 224 175 365 21 111 13 349 -16 460 -80 306 -294 485 -646 540
-120 18 -327 25 -446 15z m346 -335 c173 -45 274 -149 311 -324 19 -90 18
-293 -2 -389 -52 -254 -215 -381 -490 -382 -169 0 -274 33 -362 115 -111 103
-147 214 -146 450 1 145 3 168 27 241 71 214 208 302 477 303 83 1 146 -4 185
-14z"/>
<path d="M2704 3080 c-12 -4 -31 -21 -43 -36 l-21 -27 0 -784 0 -785 34 -34
34 -34 149 0 c173 0 204 11 222 77 6 22 11 144 11 291 l0 254 193 -4 c176 -3
195 -5 234 -25 70 -38 128 -108 266 -323 122 -189 137 -208 187 -237 l54 -33
183 0 c182 0 183 0 198 24 14 21 14 28 2 58 -14 32 -186 308 -270 433 -53 78
-151 180 -188 195 -16 7 -29 15 -29 19 0 4 32 15 70 25 147 37 276 129 324
229 60 124 54 291 -17 432 -42 84 -134 173 -227 218 -149 73 -130 71 -770 74
-316 1 -585 -2 -596 -7z m1072 -358 c162 -73 178 -253 29 -334 -75 -40 -146
-48 -443 -48 l-272 0 0 206 0 205 318 -3 c307 -3 319 -4 368 -26z"/>
<path d="M6754 3080 c-12 -4 -31 -21 -43 -36 l-21 -27 0 -779 c0 -852 -2 -822
58 -847 21 -9 183 -11 638 -9 607 3 609 4 679 27 303 100 443 322 379 601 -24
106 -111 227 -190 262 -24 11 -24 11 27 65 66 70 101 147 107 238 15 238 -125
414 -387 488 -73 20 -98 21 -651 24 -316 1 -585 -2 -596 -7z m1112 -336 c56
-41 69 -69 69 -149 0 -83 -16 -115 -76 -150 -32 -19 -55 -20 -376 -23 l-343
-3 0 176 0 176 349 -3 c335 -3 351 -4 377 -24z m37 -648 c88 -36 132 -168 93
-279 -18 -50 -42 -76 -91 -98 -36 -17 -72 -19 -402 -19 l-363 0 0 205 0 205
365 0 c286 0 373 -3 398 -14z"/>
<path d="M10624 3080 c-12 -4 -31 -21 -43 -36 -18 -23 -21 -40 -21 -123 0
-169 5 -171 370 -171 l270 0 0 -635 c0 -683 0 -683 51 -719 19 -13 51 -16 177
-16 l154 0 34 34 34 34 0 650 0 651 288 3 c315 3 318 4 347 64 19 41 20 163 1
209 -29 68 11 65 -858 64 -431 0 -793 -4 -804 -9z"/>
<path d="M12564 3081 c-12 -5 -31 -22 -43 -37 l-21 -27 0 -786 c0 -730 2 -788
18 -807 31 -39 56 -44 207 -44 l147 0 34 34 34 34 0 786 0 786 -29 32 -29 33
-149 2 c-81 1 -158 -2 -169 -6z"/>
<path d="M15388 3074 c-58 -31 -58 -26 -58 -582 0 -410 3 -526 15 -596 46
-262 199 -425 467 -498 78 -22 101 -23 383 -23 278 1 306 2 379 23 235 65 373
194 447 417 23 69 24 74 27 632 2 399 0 569 -8 583 -6 12 -26 30 -43 40 -28
17 -51 20 -170 20 -110 0 -145 -3 -166 -16 -58 -34 -56 -14 -61 -609 -5 -548
-5 -550 -28 -600 -62 -134 -165 -173 -432 -162 -162 7 -216 23 -275 82 -80 80
-79 69 -85 685 -5 588 -4 576 -60 605 -41 21 -293 21 -332 -1z"/>
<path d="M17428 3074 c-60 -32 -58 -2 -58 -834 0 -818 -1 -807 51 -844 21 -14
94 -16 750 -16 707 0 727 1 751 20 40 31 50 70 47 165 -4 83 -5 88 -37 116
l-32 29 -540 0 -540 0 0 180 0 180 469 0 c450 0 469 1 493 20 40 31 50 70 47
165 -4 83 -5 88 -37 116 l-32 29 -470 0 -470 0 0 175 0 175 525 0 c564 0 573
1 609 51 12 18 16 47 16 121 0 94 -1 99 -29 130 l-29 33 -729 2 c-630 2 -732
0 -755 -13z"/>
<path d="M2210 2961 c-6 -12 -10 -121 -10 -285 l0 -266 -57 0 c-105 0 -106 5
-113 310 l-5 245 -30 3 c-50 6 -55 -12 -55 -207 0 -229 12 -330 44 -386 40
-68 66 -75 268 -75 154 0 176 2 205 20 41 25 69 80 83 161 11 73 14 458 2 475
-12 18 -42 25 -62 14 -17 -9 -19 -29 -22 -252 -4 -303 -3 -302 -101 -306 l-67
-3 0 274 c0 199 -3 276 -12 285 -18 18 -56 14 -68 -7z"/>
<path d="M2031 2223 c-25 -12 -41 -32 -59 -72 -25 -55 -26 -62 -30 -331 -3
-182 0 -284 7 -302 l11 -28 284 0 c272 0 286 1 296 19 13 26 13 466 -1 551
-13 81 -47 142 -93 164 -50 24 -366 23 -415 -1z m391 -110 c30 -34 38 -97 38
-305 l0 -208 -216 0 -216 0 4 233 c3 199 6 237 21 265 l18 32 168 0 c147 0
170 -2 183 -17z"/>
</g>
</svg>
