<?xml version="1.0" standalone="no"?>
<!DOCTYPE svg PUBLIC "-//W3C//DTD SVG 20010904//EN"
 "http://www.w3.org/TR/2001/REC-SVG-20010904/DTD/svg10.dtd">
<svg version="1.0" xmlns="http://www.w3.org/2000/svg"
 width="2002.000000pt" height="974.000000pt" viewBox="0 0 2002.000000 974.000000"
 preserveAspectRatio="xMidYMid meet">

<g transform="translate(0.000000,974.000000) scale(0.100000,-0.100000)"
fill="#000000" stroke="none">
<path d="M11186 8305 c-83 -29 -126 -111 -111 -213 9 -61 53 -174 93 -237 l31
-50 -867 -867 c-477 -478 -869 -868 -872 -868 -3 0 -16 39 -29 88 -67 249
-199 514 -367 739 -73 98 -255 286 -354 366 -220 178 -492 315 -755 380 -185
46 -239 52 -480 52 -212 -1 -240 -3 -360 -28 -318 -68 -609 -205 -855 -404
-90 -73 -249 -233 -321 -323 -175 -218 -340 -542 -404 -795 -10 -38 -21 -73
-24 -77 -4 -4 -393 379 -865 851 l-858 858 35 64 c50 91 70 167 65 250 -6 115
-62 164 -183 162 -135 -2 -296 -86 -448 -232 -188 -181 -285 -363 -275 -517 9
-147 124 -199 303 -139 44 14 108 44 143 66 35 21 66 39 70 39 4 0 448 -441
987 -980 l980 -980 196 0 196 0 12 143 c21 251 76 463 177 675 299 633 928
1015 1567 953 493 -47 908 -306 1194 -743 167 -255 266 -554 294 -886 l12
-142 204 0 c156 0 203 3 203 13 0 6 444 456 988 999 l987 988 85 -43 c140 -70
242 -84 320 -44 272 137 -139 782 -562 882 -77 18 -102 18 -152 0z"/>
<path d="M6743 6470 c-71 -43 -122 -146 -149 -303 -38 -215 20 -469 129 -562
44 -38 82 -46 133 -29 48 17 76 45 113 114 51 96 72 196 72 340 0 145 -21 244
-73 342 -57 108 -146 146 -225 98z"/>
<path d="M7924 6470 c-95 -61 -154 -230 -154 -440 0 -141 19 -232 65 -327 90
-183 236 -182 325 2 145 297 42 786 -164 785 -24 0 -54 -9 -72 -20z"/>
<path d="M10322 5130 c-33 -14 -42 -49 -42 -171 l0 -109 -272 0 c-286 0 -361
-8 -451 -48 -57 -25 -113 -76 -140 -126 -21 -39 -22 -56 -25 -298 -2 -168 1
-271 8 -298 15 -54 78 -123 144 -155 96 -47 180 -59 421 -59 286 0 378 21 463
105 70 69 67 39 70 611 3 509 2 518 -18 538 -16 16 -32 20 -77 19 -32 0 -68
-4 -81 -9z m-42 -726 c0 -172 -4 -272 -11 -286 -6 -11 -32 -30 -57 -41 -42
-20 -68 -22 -253 -25 -229 -4 -276 3 -321 48 l-28 28 0 226 0 226 28 31 c45
50 93 58 385 58 l257 1 0 -266z"/>
<path d="M2345 5120 c-158 -32 -284 -128 -315 -239 -14 -50 -13 -696 1 -761
21 -97 114 -178 265 -230 67 -23 82 -24 440 -28 l371 -4 26 24 c37 33 41 114
7 148 -19 19 -34 20 -317 20 -329 1 -425 9 -493 43 -79 39 -80 43 -80 417 0
238 4 332 13 350 35 71 156 89 584 90 242 0 284 2 297 16 32 32 32 92 0 142
l-14 22 -373 -1 c-204 -1 -390 -5 -412 -9z"/>
<path d="M12743 5070 c-92 -19 -172 -84 -192 -157 -7 -24 -11 -214 -11 -519 0
-565 -8 -523 107 -531 67 -5 73 -4 97 20 l26 26 0 246 0 245 135 0 c122 0 137
2 155 20 31 31 30 113 -1 145 -17 18 -35 20 -155 23 l-135 4 3 131 3 132 38
18 c32 16 68 19 260 22 218 3 222 4 240 27 24 29 19 108 -8 138 -17 19 -30 20
-269 19 -138 -1 -270 -5 -293 -9z"/>
<path d="M6461 4864 c-88 -18 -164 -58 -201 -102 -59 -72 -61 -88 -58 -631 3
-569 -7 -521 110 -521 102 0 108 9 108 159 l0 119 288 5 c218 4 302 9 350 21
120 30 191 81 228 161 23 49 24 58 24 315 0 237 -2 269 -19 305 -39 84 -135
143 -276 170 -102 20 -463 19 -554 -1z m521 -175 c33 -7 62 -22 80 -39 l28
-28 0 -230 c0 -217 -1 -231 -21 -256 -39 -49 -104 -60 -389 -60 l-255 -1 -3
263 c-1 170 1 270 8 282 16 30 57 53 119 66 72 16 364 17 433 3z"/>
<path d="M7801 4865 c-142 -32 -252 -106 -290 -196 -21 -48 -22 -62 -19 -297
3 -284 6 -292 98 -375 106 -96 196 -112 627 -112 382 0 367 -3 367 85 0 39 -5
56 -22 73 -22 22 -29 22 -345 28 -341 6 -367 9 -436 59 -34 24 -61 77 -61 119
l0 31 429 0 c386 0 430 2 442 17 22 26 25 319 5 381 -25 74 -89 128 -201 172
-56 22 -76 24 -295 27 -176 2 -251 -1 -299 -12z m474 -189 c98 -27 109 -40
113 -130 l3 -76 -341 0 -340 0 0 68 c0 91 24 122 120 153 43 15 378 3 445 -15z"/>
<path d="M15687 4858 c-175 -12 -326 -62 -395 -130 -68 -66 -67 -56 -70 -454
-3 -431 -9 -409 106 -409 119 0 112 -22 112 371 0 188 4 344 10 358 25 65 161
91 444 83 207 -5 275 -18 314 -60 21 -22 21 -30 24 -369 3 -402 -2 -379 100
-386 53 -3 67 -1 91 18 l28 22 -3 372 -3 373 -30 49 c-34 55 -107 105 -190
130 -106 32 -343 46 -538 32z"/>
<path d="M3620 4849 c-139 -28 -256 -95 -305 -173 l-30 -49 -3 -256 c-3 -298
0 -314 79 -385 51 -46 114 -75 228 -104 98 -25 586 -24 684 1 129 32 212 89
252 171 l26 54 -3 269 -3 270 -30 49 c-37 59 -103 106 -193 136 -62 20 -89 22
-362 24 -162 2 -315 -1 -340 -7z m614 -189 c22 -6 52 -25 68 -40 l28 -28 0
-224 c0 -255 2 -250 -89 -292 -43 -20 -62 -21 -321 -21 -302 0 -351 7 -401 61
-24 25 -24 28 -24 238 0 237 3 248 70 280 80 38 150 46 395 42 145 -2 250 -8
274 -16z"/>
<path d="M4800 4840 c-19 -19 -20 -33 -20 -372 0 -220 4 -368 11 -392 24 -86
123 -157 269 -191 97 -22 391 -32 521 -16 245 29 388 106 418 226 7 28 11 167
11 378 0 323 -1 335 -21 361 -19 24 -27 26 -90 26 -115 0 -109 22 -109 -380
l0 -340 -27 -30 c-36 -39 -110 -56 -268 -65 -231 -12 -450 18 -481 66 -5 8
-11 171 -14 362 l-5 349 -24 19 c-34 28 -143 27 -171 -1z"/>
<path d="M10951 4845 c-84 -19 -197 -74 -240 -116 -19 -19 -44 -54 -55 -79
-19 -42 -21 -62 -21 -285 l0 -240 28 -57 c31 -64 86 -116 155 -148 95 -45 158
-52 517 -57 337 -5 340 -5 368 17 21 17 27 30 27 60 0 46 -16 86 -39 96 -9 5
-160 11 -336 14 -306 5 -322 6 -370 28 -80 37 -125 93 -125 159 0 9 102 13
431 15 417 3 431 4 445 23 12 16 14 55 12 206 -3 181 -4 187 -29 225 -33 50
-90 89 -176 122 -65 25 -78 26 -298 29 -172 2 -246 -1 -294 -12z m384 -175
c102 -15 140 -27 175 -56 30 -26 31 -29 28 -98 l-3 -71 -340 0 -340 0 0 72 c0
66 2 74 30 103 16 17 50 37 75 45 54 16 273 19 375 5z"/>
<path d="M13585 4849 c-157 -23 -252 -78 -300 -174 l-30 -60 0 -375 0 -375
105 0 105 0 5 360 c5 354 5 361 28 397 16 25 42 46 80 65 56 27 61 28 225 28
181 0 187 2 187 56 0 30 -32 62 -79 78 -39 13 -237 13 -326 0z"/>
<path d="M14118 4844 c-37 -42 -30 -132 13 -155 13 -6 110 -9 272 -7 286 3
315 -2 342 -64 7 -18 11 -36 7 -40 -4 -3 -95 -8 -202 -10 -165 -4 -205 -8
-260 -26 -96 -31 -168 -85 -202 -151 -26 -50 -28 -61 -28 -170 0 -137 13 -175
80 -235 91 -82 220 -121 400 -120 177 0 287 33 359 105 65 65 66 67 69 368 4
320 1 333 -78 404 -93 84 -186 103 -535 113 -207 6 -221 6 -237 -12z m638
-500 c10 -68 0 -195 -19 -230 -24 -47 -77 -64 -199 -64 -113 0 -194 20 -234
57 -22 20 -24 30 -24 111 0 97 3 104 67 136 54 27 102 34 255 35 l147 1 7 -46z"/>
<path d="M16973 4849 c-144 -24 -248 -98 -277 -198 -22 -75 -23 -504 -2 -575
30 -99 110 -161 246 -193 62 -15 124 -18 363 -18 l289 0 19 24 c32 39 21 129
-18 147 -10 4 -142 10 -293 13 -268 6 -276 7 -325 31 -27 14 -56 36 -62 50 -9
18 -13 90 -13 243 l0 219 28 28 c47 46 85 52 384 59 320 7 313 5 313 92 0 41
-4 54 -24 70 -22 18 -41 19 -300 18 -152 -1 -299 -5 -328 -10z"/>
<path d="M18162 4845 c-98 -22 -196 -71 -246 -125 -67 -72 -71 -92 -71 -360
l0 -235 28 -57 c31 -64 86 -116 155 -148 95 -45 158 -52 517 -57 337 -5 340
-5 368 17 21 17 27 30 27 60 0 50 -14 85 -37 96 -10 4 -162 11 -338 14 -306 5
-322 6 -370 28 -80 37 -125 93 -125 159 0 10 100 13 431 15 417 3 431 4 445
23 12 16 14 55 12 206 -3 184 -3 186 -31 227 -33 51 -84 86 -174 120 -65 25
-78 26 -298 29 -169 2 -247 -2 -293 -12z m458 -188 c68 -17 116 -41 124 -62 3
-9 6 -48 6 -86 l0 -69 -342 2 -343 3 1 73 c0 65 3 75 29 102 49 52 97 60 295
56 102 -3 198 -10 230 -19z"/>
<path d="M9437 3313 c-4 -3 -7 -63 -7 -133 l0 -126 -80 -33 -80 -33 -121 97
c-102 83 -122 96 -133 84 -7 -8 -55 -65 -106 -128 l-94 -114 55 -51 c30 -28
80 -75 112 -103 l58 -53 -22 -70 -23 -70 -143 0 -143 0 0 -145 0 -145 143 0
142 0 29 -76 29 -75 -69 -72 c-38 -40 -84 -88 -102 -107 l-32 -36 111 -104
112 -104 30 35 c17 18 58 64 92 102 l62 67 71 -31 72 -32 0 -148 0 -149 180 0
180 0 1 93 c0 50 4 112 7 136 7 44 8 45 76 73 38 15 72 28 76 28 4 0 62 -53
130 -117 l123 -118 104 109 104 109 -24 26 c-13 14 -64 73 -114 131 l-91 106
31 72 30 72 148 0 149 0 0 154 0 153 -142 9 -142 9 -32 76 -32 77 90 102 90
103 -119 119 -118 118 -100 -100 c-55 -55 -105 -100 -112 -100 -6 0 -40 13
-76 29 l-65 29 6 131 5 131 -160 0 c-88 0 -163 -3 -166 -7z m314 -503 c122
-38 212 -129 250 -254 57 -182 -26 -373 -200 -459 -61 -30 -72 -32 -171 -32
-94 0 -111 3 -161 28 -74 36 -150 112 -186 184 -25 52 -28 68 -28 163 0 93 3
112 27 162 85 181 280 268 469 208z"/>
<path d="M14000 3303 c-69 -7 -192 -35 -262 -59 -197 -67 -348 -205 -426 -391
-41 -96 -63 -211 -69 -358 -9 -217 17 -373 86 -520 100 -213 272 -334 561
-397 88 -19 135 -21 671 -25 514 -4 580 -3 608 11 49 26 63 65 59 163 -3 81
-4 86 -36 114 -32 29 -34 29 -148 29 l-117 0 27 33 c140 172 193 304 203 508
16 317 -78 578 -259 717 -114 87 -282 149 -468 172 -79 9 -351 11 -430 3z
m419 -342 c214 -67 302 -239 288 -559 -11 -259 -106 -425 -281 -491 -162 -60
-396 -45 -532 34 -89 52 -160 166 -189 301 -32 149 -13 380 40 500 49 112 162
199 299 230 88 20 291 12 375 -15z"/>
<path d="M5370 3167 l0 -133 -79 -33 c-48 -20 -85 -30 -93 -25 -7 4 -62 48
-122 98 l-110 89 -28 -34 c-16 -19 -64 -77 -107 -130 l-79 -95 113 -102 114
-102 -25 -72 -24 -73 -140 3 -140 4 0 -146 0 -145 142 -3 141 -3 29 -69 c15
-38 28 -71 28 -73 0 -2 -45 -52 -101 -110 l-101 -106 94 -94 c51 -52 101 -99
111 -104 19 -11 17 -12 172 159 l30 33 72 -33 73 -33 0 -147 0 -147 174 -3
174 -3 6 44 c3 24 6 77 6 117 0 105 6 115 89 148 l71 28 120 -114 c67 -62 125
-114 129 -116 9 -3 201 200 201 212 0 6 -110 138 -202 242 -18 20 -18 22 11
90 l29 69 151 3 151 3 0 153 0 154 -144 7 -145 7 -9 27 c-5 14 -19 49 -31 78
l-20 52 89 103 90 103 -119 119 -119 119 -101 -105 -101 -106 -76 32 -76 31 7
132 7 133 -166 0 -166 0 0 -133z m337 -391 c76 -35 153 -113 191 -193 24 -51
27 -70 27 -158 0 -88 -3 -107 -27 -157 -37 -80 -108 -152 -187 -191 -61 -29
-74 -32 -166 -32 -92 0 -105 3 -166 32 -79 39 -150 111 -187 191 -24 50 -27
69 -27 157 0 88 3 107 27 157 32 69 107 152 162 180 80 41 109 48 201 45 74
-2 101 -7 152 -31z"/>
<path d="M2761 3267 c-19 -6 -44 -25 -55 -40 -21 -28 -21 -35 -24 -786 -3
-821 -3 -815 51 -855 25 -18 45 -21 155 -24 143 -4 191 6 221 45 20 25 21 38
21 305 l0 280 188 -4 c181 -3 189 -4 244 -31 77 -38 123 -91 257 -303 182
-287 183 -287 421 -292 194 -4 220 2 220 51 0 37 -8 51 -185 331 -125 196
-210 298 -279 333 l-38 19 66 18 c160 44 290 136 343 245 26 52 28 65 28 176
0 143 -17 205 -80 296 -75 108 -184 180 -334 221 -72 21 -102 22 -631 25 -422
2 -563 0 -589 -10z m1052 -356 c76 -30 122 -76 135 -136 23 -109 -30 -186
-159 -226 -54 -17 -94 -19 -360 -19 l-299 0 0 206 0 206 313 -4 c298 -4 315
-5 370 -27z"/>
<path d="M6811 3267 c-19 -6 -44 -25 -55 -40 -21 -28 -21 -35 -24 -786 -3
-821 -3 -815 51 -855 28 -21 35 -21 625 -21 583 1 599 1 677 23 241 66 385
209 417 415 14 90 0 194 -37 274 -26 58 -99 142 -152 174 l-34 21 51 54 c92
97 127 221 100 356 -28 144 -112 249 -252 317 -151 72 -164 73 -783 77 -419 3
-558 1 -584 -9z m1099 -335 c52 -25 82 -91 78 -165 -5 -61 -23 -95 -72 -131
-26 -20 -42 -21 -382 -24 l-354 -3 0 171 0 170 348 0 c310 0 351 -2 382 -18z
m53 -656 c67 -33 105 -123 92 -222 -7 -61 -36 -109 -84 -141 -34 -23 -35 -23
-412 -23 l-379 0 0 205 0 206 373 -3 c340 -3 375 -5 410 -22z"/>
<path d="M10681 3267 c-59 -21 -76 -55 -76 -156 0 -98 11 -128 55 -154 24 -15
65 -17 309 -17 l281 0 0 -646 c0 -707 -2 -684 58 -716 35 -18 299 -18 334 0
60 32 58 9 58 716 l0 646 283 0 c262 0 284 1 314 20 40 24 56 79 51 172 -4 79
-26 117 -79 135 -49 17 -1539 17 -1588 0z"/>
<path d="M12621 3267 c-19 -7 -44 -25 -55 -40 -21 -28 -21 -35 -24 -795 -2
-715 -1 -769 15 -802 31 -60 67 -71 223 -68 147 3 175 13 198 64 9 18 12 235
12 797 0 747 -1 773 -20 804 -13 21 -31 35 -57 42 -51 14 -249 13 -292 -2z"/>
<path d="M15465 3273 c-33 -9 -63 -33 -74 -62 -9 -20 -11 -180 -8 -582 3 -495
5 -560 21 -613 65 -220 214 -365 438 -426 197 -54 599 -54 798 1 173 47 314
157 383 299 72 148 71 134 75 745 3 498 2 553 -13 581 -28 52 -52 59 -211 59
-129 0 -145 -2 -171 -21 -54 -40 -53 -31 -53 -576 0 -521 -3 -575 -41 -649
-28 -57 -92 -105 -163 -124 -87 -24 -391 -18 -451 8 -55 25 -109 80 -137 141
-23 51 -23 53 -28 598 -5 535 -5 547 -26 575 -11 15 -36 33 -55 40 -33 12
-244 16 -284 6z"/>
<path d="M17505 3272 c-31 -10 -50 -25 -68 -52 -16 -22 -17 -88 -17 -798 0
-695 2 -777 16 -801 35 -59 -1 -56 766 -59 781 -3 758 -5 798 60 24 40 28 160
6 213 -28 66 -16 65 -606 65 l-530 0 0 175 0 175 450 0 c498 0 502 1 540 62
26 43 28 163 4 214 -31 65 -24 64 -534 64 l-460 0 0 175 0 175 546 2 546 3 29
33 c28 31 29 37 29 125 0 112 -18 150 -77 166 -42 12 -1403 14 -1438 3z"/>
<path d="M2005 3143 c-15 -14 -16 -42 -12 -257 5 -271 10 -302 67 -358 l38
-38 195 0 c195 0 196 0 226 25 17 15 39 50 51 81 19 52 20 73 18 307 l-3 252
-35 0 -35 0 -6 -245 c-4 -143 -11 -257 -17 -273 -14 -33 -51 -49 -106 -45
l-41 3 -5 280 -5 280 -34 3 c-20 2 -37 -2 -42 -10 -5 -7 -9 -136 -9 -285 l0
-273 -54 0 c-66 0 -93 19 -106 75 -5 22 -10 140 -10 261 0 193 -2 223 -16 228
-26 10 -42 7 -59 -11z"/>
<path d="M2106 2420 c-40 -13 -66 -38 -90 -90 -19 -42 -21 -67 -24 -323 -2
-153 -1 -289 2 -303 l6 -24 293 2 292 3 0 305 0 305 -25 44 c-46 82 -58 86
-253 88 -95 1 -185 -2 -201 -7z m363 -119 c30 -30 36 -79 36 -306 l0 -210
-210 0 -210 0 -3 200 c-3 228 1 273 29 309 20 26 21 26 180 26 144 0 161 -2
178 -19z"/>
</g>
</svg>
